Coordinates
version=1
nRows=24
nColumns=34
inDegrees=no

Units are S.I. units (second, meters, Newtons, ...)
If the header above contains a line with 'inDegrees', this indicates whether rotational values are in degrees (yes) or radians (no).

endheader
time	pelvis_tilt	pelvis_list	pelvis_rotation	pelvis_tx	pelvis_ty	pelvis_tz	hip_flexion_r	hip_adduction_r	hip_rotation_r	knee_angle_r	ankle_angle_r	subtalar_angle_r	mtp_angle_r	hip_flexion_l	hip_adduction_l	hip_rotation_l	knee_angle_l	ankle_angle_l	subtalar_angle_l	mtp_angle_l	lumbar_extension	lumbar_bending	lumbar_rotation	arm_flex_r	arm_add_r	arm_rot_r	elbow_flex_r	pro_sup_r	arm_flex_l	arm_add_l	arm_rot_l	elbow_flex_l	pro_sup_l
0.02	-0.213289	0.128252	2.38721	1.42464	0.903374	-1.00828	-0.304486	-0.0557409	-0.604149	0.164478	0.135242	0.610865	-0.130709	-0.385729	0.0660757	-0.283407	7.9763e-44	0.0603868	0.524281	-0.130709	-0.314596	-0.0672233	-0.0631933	-0.962058	-0.620737	0.47108	1.80867	0.545839	-0.224073	-0.163153	-0.0133615	0.610809	1.73343
0.0399988	-0.213069	0.128075	2.38732	1.42437	0.903337	-1.00826	-0.304258	-0.0560589	-0.605083	0.164948	0.134905	0.610865	-0.130709	-0.3859	0.0662925	-0.283652	-4.05138e-43	0.0602206	0.525108	-0.130709	-0.314317	-0.0671989	-0.0636669	-0.961992	-0.621148	0.471007	1.80904	0.548759	-0.224262	-0.163225	-0.0136897	0.610431	1.73386
0.0599976	-0.212851	0.12784	2.38743	1.4241	0.903295	-1.00825	-0.30402	-0.0564133	-0.605872	0.165359	0.13468	0.610865	-0.130709	-0.386028	0.0665599	-0.283876	6.6009e-42	0.0600743	0.525903	-0.130709	-0.313995	-0.0672269	-0.0641587	-0.961887	-0.621566	0.47095	1.80941	0.551947	-0.22446	-0.163303	-0.0140387	0.610087	1.7343
0.0799964	-0.212642	0.127475	2.38752	1.42382	0.903243	-1.00824	-0.303759	-0.05685	-0.606327	0.16563	0.13471	0.610865	-0.130709	-0.386053	0.0669384	-0.284064	-1.18168e-40	0.0599739	0.526635	-0.130709	-0.31359	-0.067374	-0.0646783	-0.961713	-0.621976	0.470943	1.80977	0.555559	-0.224668	-0.163405	-0.0143937	0.609831	1.73475
0.0999953	-0.212458	0.126931	2.38759	1.42355	0.903177	-1.00822	-0.303474	-0.0574058	-0.60631	0.165697	0.135102	0.610865	-0.130709	-0.385924	0.0674708	-0.28422	1.95334e-39	0.05994	0.527297	-0.130709	-0.313092	-0.0676907	-0.0652166	-0.961477	-0.622337	0.471013	1.81008	0.559513	-0.224882	-0.163549	-0.0147007	0.609721	1.73521
0.119994	-0.212326	0.126207	2.38766	1.42327	0.903099	-1.00819	-0.303179	-0.0581027	-0.605816	0.165562	0.135901	0.610865	-0.130709	-0.385634	0.0681674	-0.284359	-2.99009e-38	0.0599766	0.527913	-0.130709	-0.31254	-0.0681928	-0.0657574	-0.961222	-0.622603	0.471167	1.81033	0.563661	-0.225086	-0.163745	-0.014907	0.609794	1.73565
0.139993	-0.212284	0.125371	2.38774	1.42299	0.903018	-1.00814	-0.302906	-0.0589272	-0.605011	0.165318	0.137095	0.610865	-0.130709	-0.385244	0.0689897	-0.284493	4.2493e-37	0.0600687	0.528525	-0.130709	-0.312033	-0.0688436	-0.0662909	-0.961	-0.622747	0.471386	1.81051	0.56783	-0.225259	-0.163983	-0.0149842	0.610053	1.73606
0.159992	-0.212372	0.124565	2.38789	1.42272	0.902948	-1.00809	-0.302712	-0.0598141	-0.604256	0.165175	0.138653	0.610865	-0.130709	-0.384891	0.0698373	-0.284626	-5.61847e-36	0.060186	0.529186	-0.130709	-0.31172	-0.0695428	-0.066827	-0.960857	-0.622776	0.471628	1.81065	0.571876	-0.225373	-0.164235	-0.014943	0.610455	1.73643
0.179991	-0.212625	0.124006	2.38821	1.42244	0.902914	-1.00802	-0.30267	-0.0606405	-0.604097	0.165479	0.140599	0.610865	-0.130709	-0.384781	0.0705459	-0.28475	6.9244e-35	0.060291	0.52995	-0.130709	-0.311798	-0.0701255	-0.0673993	-0.960808	-0.622726	0.471834	1.81079	0.575711	-0.225394	-0.164459	-0.0148252	0.610915	1.73676
0.199989	-0.213069	0.123954	2.38879	1.42216	0.90294	-1.00793	-0.302855	-0.0612372	-0.605202	0.166685	0.143062	0.610865	-0.130709	-0.385152	0.0709044	-0.284847	-7.96664e-34	0.0603502	0.530858	-0.130709	-0.312476	-0.0703803	-0.0680601	-0.960832	-0.622652	0.47196	1.81098	0.579305	-0.225286	-0.164609	-0.0146801	0.611318	1.73703
0.219988	-0.21371	0.124647	2.38973	1.42188	0.903053	-1.00783	-0.303331	-0.0614296	-0.608201	0.16925	0.146258	0.610865	-0.130709	-0.386219	0.0707077	-0.284877	8.56712e-33	0.0603475	0.531904	-0.130709	-0.313929	-0.0701012	-0.0688649	-0.960867	-0.622604	0.471993	1.81124	0.582682	-0.225016	-0.164649	-0.0145421	0.611555	1.73725
0.239987	-0.214528	0.126169	2.39108	1.42159	0.903259	-1.00773	-0.30411	-0.0611319	-0.613357	0.173372	0.150311	0.610865	-0.130709	-0.388053	0.0698715	-0.284762	-8.61942e-32	0.0602919	0.532986	-0.130709	-0.316197	-0.0691978	-0.0698492	-0.960828	-0.622612	0.471964	1.81155	0.585922	-0.224583	-0.164574	-0.0144245	0.611573	1.73741
0.259986	-0.215468	0.128206	2.39272	1.4213	0.903529	-1.0076	-0.305073	-0.0605301	-0.620035	0.17856	0.154869	0.610865	-0.130709	-0.390381	0.0686398	-0.284369	8.11888e-31	0.0602161	0.533849	-0.130709	-0.319002	-0.0678896	-0.070995	-0.960628	-0.622681	0.471955	1.81187	0.589141	-0.224045	-0.164411	-0.014334	0.611424	1.73747
0.279985	-0.216413	0.129689	2.39428	1.42103	0.903762	-1.00746	-0.305829	-0.0603815	-0.626015	0.18305	0.15855	0.610865	-0.130709	-0.392297	0.0678916	-0.283513	-7.1622e-30	0.0601514	0.534076	-0.130709	-0.321465	-0.0669852	-0.072197	-0.960238	-0.622788	0.472074	1.81214	0.592383	-0.223539	-0.164241	-0.014256	0.611256	1.7374
0.299983	-0.217338	0.130295	2.39564	1.42077	0.903927	-1.00728	-0.306234	-0.0609522	-0.630643	0.186412	0.161048	0.610865	-0.130709	-0.393523	0.0679032	-0.282153	5.91751e-29	0.0601172	0.533554	-0.130709	-0.323324	-0.0667295	-0.0734052	-0.959654	-0.622927	0.472363	1.81232	0.595663	-0.223109	-0.1641	-0.014157	0.611143	1.73716
0.319982	-0.218251	0.130102	2.3968	1.42052	0.904029	-1.00709	-0.306285	-0.0622174	-0.634033	0.188851	0.162567	0.610865	-0.130709	-0.39412	0.0686153	-0.280349	-4.57727e-28	0.0601232	0.532356	-0.130709	-0.32463	-0.0670598	-0.0745918	-0.95892	-0.623113	0.472814	1.81238	0.599034	-0.22275	-0.164006	-0.0139985	0.611121	1.73672
0.339981	-0.219151	0.129376	2.39781	1.42028	0.904085	-1.00688	-0.306073	-0.0639708	-0.636517	0.190728	0.163447	0.610865	-0.130709	-0.394291	0.0697966	-0.278277	3.31179e-27	0.0601648	0.530728	-0.130709	-0.325549	-0.0677645	-0.0757178	-0.958114	-0.623382	0.473392	1.81234	0.602576	-0.222454	-0.163963	-0.0137554	0.611207	1.73605
0.35998	-0.219998	0.128461	2.39867	1.42005	0.904114	-1.00669	-0.305757	-0.0658736	-0.63834	0.192278	0.163968	0.610865	-0.130709	-0.394287	0.0711292	-0.276242	-2.23782e-26	0.0602223	0.529067	-0.130709	-0.326264	-0.0685613	-0.076704	-0.95734	-0.623781	0.47406	1.81222	0.606348	-0.222234	-0.163965	-0.0134315	0.611425	1.73513
0.379979	-0.220705	0.127736	2.39935	1.41981	0.904128	-1.00654	-0.305562	-0.0674774	-0.639535	0.19351	0.164281	0.610865	-0.130709	-0.394373	0.0722478	-0.274667	1.40865e-25	0.0602661	0.527889	-0.130709	-0.326917	-0.069132	-0.0774194	-0.956712	-0.624352	0.474789	1.81212	0.610304	-0.222137	-0.163999	-0.0130644	0.611807	1.73403
0.399977	-0.221154	0.127558	2.39976	1.41958	0.904133	-1.00649	-0.30573	-0.0682994	-0.639965	0.19425	0.164418	0.610865	-0.130709	-0.394796	0.0727958	-0.273989	-8.22751e-25	0.0602744	0.527679	-0.130709	-0.327602	-0.0691683	-0.0777046	-0.956328	-0.625107	0.47557	1.81211	0.614213	-0.222231	-0.16404	-0.0127212	0.612393	1.73288
0.419976	-0.221257	0.128104	2.39988	1.41935	0.904131	-1.00656	-0.306371	-0.0680769	-0.639612	0.1944	0.164389	0.610865	-0.130709	-0.395698	0.0725848	-0.274288	4.4306e-24	0.0602818	0.528453	-0.130709	-0.328328	-0.0685074	-0.0774804	-0.956224	-0.626008	0.476416	1.81225	0.617925	-0.222565	-0.164079	-0.0124386	0.613199	1.73176
0.439975	-0.221055	0.129209	2.39981	1.41911	0.904121	-1.00671	-0.307366	-0.0669751	-0.638733	0.194068	0.164237	0.610865	-0.130709	-0.396948	0.0717324	-0.275226	-2.17649e-23	0.0603204	0.529869	-0.130709	-0.329047	-0.0672766	-0.0769106	-0.956287	-0.626958	0.47738	1.81251	0.621384	-0.223084	-0.164131	-0.0122051	0.614179	1.73067
0.459974	-0.220648	0.130608	2.39972	1.41887	0.904105	-1.00693	-0.308545	-0.0653179	-0.637634	0.193427	0.164015	0.610865	-0.130709	-0.39836	0.070476	-0.2764	9.56488e-23	0.0604004	0.53156	-0.130709	-0.329705	-0.0657049	-0.0762063	-0.956382	-0.627844	0.478498	1.81284	0.624629	-0.223697	-0.164209	-0.0119815	0.615248	1.72956
0.479973	-0.220133	0.132066	2.3997	1.41862	0.904085	-1.00718	-0.309763	-0.0634142	-0.63655	0.192636	0.163766	0.610865	-0.130709	-0.399772	0.069042	-0.277532	-3.60818e-22	0.0605102	0.5333	-0.130709	-0.330257	-0.0640069	-0.0755279	-0.956411	-0.628575	0.479765	1.81317	0.627782	-0.224318	-0.16432	-0.01172	0.616309	1.72841
